<mxfile host="app.diagrams.net" agent="Mozilla/5.0 (Windows NT 10.0; Win64; x64) AppleWebKit/537.36 (KHTML, like Gecko) Chrome/137.0.0.0 Safari/537.36" version="26.0.8">
  <diagram name="Page-1" id="m2SmGxFXpNWVaRNIO1Av">
    <mxGraphModel dx="1371" dy="603" grid="1" gridSize="10" guides="1" tooltips="1" connect="1" arrows="1" fold="1" page="1" pageScale="1" pageWidth="850" pageHeight="1100" math="0" shadow="0">
      <root>
        <mxCell id="0" />
        <mxCell id="1" parent="0" />
        <mxCell id="asDQN7h84OJRG8ssvjX6-33" style="edgeStyle=orthogonalEdgeStyle;rounded=0;orthogonalLoop=1;jettySize=auto;html=1;exitX=0.5;exitY=1;exitDx=0;exitDy=0;" edge="1" parent="1" source="asDQN7h84OJRG8ssvjX6-1" target="asDQN7h84OJRG8ssvjX6-3">
          <mxGeometry relative="1" as="geometry" />
        </mxCell>
        <mxCell id="asDQN7h84OJRG8ssvjX6-1" value="&lt;font style=&quot;font-size: 14px;&quot;&gt;&lt;b&gt;تشغيل&lt;/b&gt;&lt;/font&gt;" style="rounded=1;whiteSpace=wrap;html=1;" vertex="1" parent="1">
          <mxGeometry x="210" y="100" width="100" height="50" as="geometry" />
        </mxCell>
        <mxCell id="asDQN7h84OJRG8ssvjX6-2" value="&lt;font style=&quot;font-size: 14px;&quot;&gt;&lt;b&gt;إنشاء كلمة عشوائية&amp;nbsp;&lt;/b&gt;&lt;/font&gt;" style="rounded=1;whiteSpace=wrap;html=1;" vertex="1" parent="1">
          <mxGeometry x="210" y="190" width="100" height="50" as="geometry" />
        </mxCell>
        <mxCell id="asDQN7h84OJRG8ssvjX6-34" style="edgeStyle=orthogonalEdgeStyle;rounded=0;orthogonalLoop=1;jettySize=auto;html=1;exitX=0.5;exitY=1;exitDx=0;exitDy=0;" edge="1" parent="1" source="asDQN7h84OJRG8ssvjX6-3" target="asDQN7h84OJRG8ssvjX6-4">
          <mxGeometry relative="1" as="geometry" />
        </mxCell>
        <mxCell id="asDQN7h84OJRG8ssvjX6-3" value="&lt;font style=&quot;font-size: 14px;&quot;&gt;&lt;b&gt;إنشاء كلمة عشوائية&amp;nbsp;&lt;/b&gt;&lt;/font&gt;" style="rounded=1;whiteSpace=wrap;html=1;" vertex="1" parent="1">
          <mxGeometry x="210" y="190" width="100" height="50" as="geometry" />
        </mxCell>
        <mxCell id="asDQN7h84OJRG8ssvjX6-35" style="edgeStyle=orthogonalEdgeStyle;rounded=0;orthogonalLoop=1;jettySize=auto;html=1;exitX=0.5;exitY=1;exitDx=0;exitDy=0;entryX=0.5;entryY=0;entryDx=0;entryDy=0;" edge="1" parent="1" source="asDQN7h84OJRG8ssvjX6-4" target="asDQN7h84OJRG8ssvjX6-5">
          <mxGeometry relative="1" as="geometry" />
        </mxCell>
        <mxCell id="asDQN7h84OJRG8ssvjX6-4" value="&lt;span style=&quot;font-size: 14px;&quot;&gt;&lt;b&gt;إنشاء مسافات بنفس عدد حروف الكلمة العشوائية&amp;nbsp;&lt;/b&gt;&lt;/span&gt;" style="rounded=1;whiteSpace=wrap;html=1;" vertex="1" parent="1">
          <mxGeometry x="160" y="290" width="200" height="50" as="geometry" />
        </mxCell>
        <mxCell id="asDQN7h84OJRG8ssvjX6-36" style="edgeStyle=orthogonalEdgeStyle;rounded=0;orthogonalLoop=1;jettySize=auto;html=1;exitX=0.5;exitY=1;exitDx=0;exitDy=0;entryX=0.5;entryY=0;entryDx=0;entryDy=0;" edge="1" parent="1" source="asDQN7h84OJRG8ssvjX6-5" target="asDQN7h84OJRG8ssvjX6-6">
          <mxGeometry relative="1" as="geometry" />
        </mxCell>
        <mxCell id="asDQN7h84OJRG8ssvjX6-5" value="&lt;font style=&quot;font-size: 14px;&quot;&gt;&lt;b&gt;اطلب تجمين حرف&lt;/b&gt;&lt;/font&gt;" style="rounded=1;whiteSpace=wrap;html=1;" vertex="1" parent="1">
          <mxGeometry x="210" y="370" width="100" height="50" as="geometry" />
        </mxCell>
        <mxCell id="asDQN7h84OJRG8ssvjX6-31" style="edgeStyle=orthogonalEdgeStyle;rounded=0;orthogonalLoop=1;jettySize=auto;html=1;exitX=0;exitY=0.5;exitDx=0;exitDy=0;" edge="1" parent="1" source="asDQN7h84OJRG8ssvjX6-6" target="asDQN7h84OJRG8ssvjX6-7">
          <mxGeometry relative="1" as="geometry" />
        </mxCell>
        <mxCell id="asDQN7h84OJRG8ssvjX6-32" style="edgeStyle=orthogonalEdgeStyle;rounded=0;orthogonalLoop=1;jettySize=auto;html=1;exitX=1;exitY=0.5;exitDx=0;exitDy=0;entryX=0.5;entryY=0;entryDx=0;entryDy=0;" edge="1" parent="1" source="asDQN7h84OJRG8ssvjX6-6" target="asDQN7h84OJRG8ssvjX6-8">
          <mxGeometry relative="1" as="geometry" />
        </mxCell>
        <mxCell id="asDQN7h84OJRG8ssvjX6-6" value="&lt;b&gt;&lt;font style=&quot;font-size: 14px;&quot;&gt;هل التخمين صحيح؟&lt;/font&gt;&lt;/b&gt;" style="rhombus;whiteSpace=wrap;html=1;" vertex="1" parent="1">
          <mxGeometry x="200" y="460" width="120" height="80" as="geometry" />
        </mxCell>
        <mxCell id="asDQN7h84OJRG8ssvjX6-23" style="edgeStyle=orthogonalEdgeStyle;rounded=0;orthogonalLoop=1;jettySize=auto;html=1;exitX=0.5;exitY=1;exitDx=0;exitDy=0;entryX=0.5;entryY=0;entryDx=0;entryDy=0;" edge="1" parent="1" source="asDQN7h84OJRG8ssvjX6-7" target="asDQN7h84OJRG8ssvjX6-9">
          <mxGeometry relative="1" as="geometry" />
        </mxCell>
        <mxCell id="asDQN7h84OJRG8ssvjX6-7" value="&lt;b&gt;&lt;font style=&quot;font-size: 14px;&quot;&gt;لا&lt;/font&gt;&lt;/b&gt;" style="ellipse;whiteSpace=wrap;html=1;aspect=fixed;" vertex="1" parent="1">
          <mxGeometry x="85" y="560" width="50" height="50" as="geometry" />
        </mxCell>
        <mxCell id="asDQN7h84OJRG8ssvjX6-26" style="edgeStyle=orthogonalEdgeStyle;rounded=0;orthogonalLoop=1;jettySize=auto;html=1;exitX=0.5;exitY=1;exitDx=0;exitDy=0;entryX=0.5;entryY=0;entryDx=0;entryDy=0;" edge="1" parent="1" source="asDQN7h84OJRG8ssvjX6-8" target="asDQN7h84OJRG8ssvjX6-10">
          <mxGeometry relative="1" as="geometry" />
        </mxCell>
        <mxCell id="asDQN7h84OJRG8ssvjX6-8" value="&lt;b&gt;&lt;font style=&quot;font-size: 14px;&quot;&gt;نعم&lt;/font&gt;&lt;/b&gt;" style="ellipse;whiteSpace=wrap;html=1;aspect=fixed;" vertex="1" parent="1">
          <mxGeometry x="390" y="560" width="50" height="50" as="geometry" />
        </mxCell>
        <mxCell id="asDQN7h84OJRG8ssvjX6-25" style="edgeStyle=orthogonalEdgeStyle;rounded=0;orthogonalLoop=1;jettySize=auto;html=1;exitX=0.5;exitY=1;exitDx=0;exitDy=0;entryX=0.5;entryY=0;entryDx=0;entryDy=0;" edge="1" parent="1" source="asDQN7h84OJRG8ssvjX6-9" target="asDQN7h84OJRG8ssvjX6-12">
          <mxGeometry relative="1" as="geometry" />
        </mxCell>
        <mxCell id="asDQN7h84OJRG8ssvjX6-9" value="&lt;font style=&quot;font-size: 14px;&quot;&gt;&lt;b&gt;يخسر محاولة&amp;nbsp;&lt;/b&gt;&lt;/font&gt;" style="rounded=1;whiteSpace=wrap;html=1;" vertex="1" parent="1">
          <mxGeometry x="60" y="640" width="100" height="50" as="geometry" />
        </mxCell>
        <mxCell id="asDQN7h84OJRG8ssvjX6-27" style="edgeStyle=orthogonalEdgeStyle;rounded=0;orthogonalLoop=1;jettySize=auto;html=1;exitX=0.5;exitY=1;exitDx=0;exitDy=0;entryX=0.5;entryY=0;entryDx=0;entryDy=0;" edge="1" parent="1" source="asDQN7h84OJRG8ssvjX6-10" target="asDQN7h84OJRG8ssvjX6-11">
          <mxGeometry relative="1" as="geometry" />
        </mxCell>
        <mxCell id="asDQN7h84OJRG8ssvjX6-10" value="&lt;font style=&quot;font-size: 14px;&quot;&gt;&lt;b&gt;بدل المسافة بالحرف&lt;/b&gt;&lt;/font&gt;" style="rounded=1;whiteSpace=wrap;html=1;" vertex="1" parent="1">
          <mxGeometry x="365" y="640" width="100" height="50" as="geometry" />
        </mxCell>
        <mxCell id="asDQN7h84OJRG8ssvjX6-21" style="edgeStyle=orthogonalEdgeStyle;rounded=0;orthogonalLoop=1;jettySize=auto;html=1;exitX=0;exitY=0.5;exitDx=0;exitDy=0;entryX=0.5;entryY=0;entryDx=0;entryDy=0;" edge="1" parent="1" source="asDQN7h84OJRG8ssvjX6-11" target="asDQN7h84OJRG8ssvjX6-16">
          <mxGeometry relative="1" as="geometry" />
        </mxCell>
        <mxCell id="asDQN7h84OJRG8ssvjX6-29" style="edgeStyle=orthogonalEdgeStyle;rounded=0;orthogonalLoop=1;jettySize=auto;html=1;exitX=1;exitY=0.5;exitDx=0;exitDy=0;entryX=0.5;entryY=0;entryDx=0;entryDy=0;" edge="1" parent="1" source="asDQN7h84OJRG8ssvjX6-11" target="asDQN7h84OJRG8ssvjX6-14">
          <mxGeometry relative="1" as="geometry">
            <mxPoint x="500" y="790" as="targetPoint" />
          </mxGeometry>
        </mxCell>
        <mxCell id="asDQN7h84OJRG8ssvjX6-11" value="&lt;b&gt;&lt;font style=&quot;font-size: 14px;&quot;&gt;هل انتهى تخمين الكلمة؟&lt;/font&gt;&lt;/b&gt;" style="rhombus;whiteSpace=wrap;html=1;" vertex="1" parent="1">
          <mxGeometry x="347.5" y="720" width="135" height="80" as="geometry" />
        </mxCell>
        <mxCell id="asDQN7h84OJRG8ssvjX6-20" style="edgeStyle=orthogonalEdgeStyle;rounded=0;orthogonalLoop=1;jettySize=auto;html=1;exitX=1;exitY=0.5;exitDx=0;exitDy=0;" edge="1" parent="1" source="asDQN7h84OJRG8ssvjX6-12" target="asDQN7h84OJRG8ssvjX6-15">
          <mxGeometry relative="1" as="geometry" />
        </mxCell>
        <mxCell id="asDQN7h84OJRG8ssvjX6-30" style="edgeStyle=orthogonalEdgeStyle;rounded=0;orthogonalLoop=1;jettySize=auto;html=1;exitX=0;exitY=0.5;exitDx=0;exitDy=0;entryX=0.5;entryY=0;entryDx=0;entryDy=0;" edge="1" parent="1" source="asDQN7h84OJRG8ssvjX6-12" target="asDQN7h84OJRG8ssvjX6-13">
          <mxGeometry relative="1" as="geometry" />
        </mxCell>
        <mxCell id="asDQN7h84OJRG8ssvjX6-12" value="&lt;b&gt;&lt;font style=&quot;font-size: 14px;&quot;&gt;هل خلص كل المحاولات؟&lt;/font&gt;&lt;/b&gt;" style="rhombus;whiteSpace=wrap;html=1;" vertex="1" parent="1">
          <mxGeometry x="37.5" y="720" width="135" height="80" as="geometry" />
        </mxCell>
        <mxCell id="asDQN7h84OJRG8ssvjX6-38" style="edgeStyle=orthogonalEdgeStyle;rounded=0;orthogonalLoop=1;jettySize=auto;html=1;exitX=0;exitY=0.5;exitDx=0;exitDy=0;entryX=0;entryY=0.5;entryDx=0;entryDy=0;" edge="1" parent="1" source="asDQN7h84OJRG8ssvjX6-13" target="asDQN7h84OJRG8ssvjX6-5">
          <mxGeometry relative="1" as="geometry" />
        </mxCell>
        <mxCell id="asDQN7h84OJRG8ssvjX6-13" value="&lt;b&gt;&lt;font style=&quot;font-size: 14px;&quot;&gt;لا&lt;/font&gt;&lt;/b&gt;" style="ellipse;whiteSpace=wrap;html=1;aspect=fixed;" vertex="1" parent="1">
          <mxGeometry x="-20" y="840" width="50" height="50" as="geometry" />
        </mxCell>
        <mxCell id="asDQN7h84OJRG8ssvjX6-37" style="edgeStyle=orthogonalEdgeStyle;rounded=0;orthogonalLoop=1;jettySize=auto;html=1;exitX=1;exitY=0.5;exitDx=0;exitDy=0;entryX=1;entryY=0.5;entryDx=0;entryDy=0;" edge="1" parent="1" source="asDQN7h84OJRG8ssvjX6-14" target="asDQN7h84OJRG8ssvjX6-5">
          <mxGeometry relative="1" as="geometry" />
        </mxCell>
        <mxCell id="asDQN7h84OJRG8ssvjX6-14" value="&lt;b&gt;&lt;font style=&quot;font-size: 14px;&quot;&gt;لا&lt;/font&gt;&lt;/b&gt;" style="ellipse;whiteSpace=wrap;html=1;aspect=fixed;" vertex="1" parent="1">
          <mxGeometry x="482.5" y="840" width="50" height="50" as="geometry" />
        </mxCell>
        <mxCell id="asDQN7h84OJRG8ssvjX6-19" style="edgeStyle=orthogonalEdgeStyle;rounded=0;orthogonalLoop=1;jettySize=auto;html=1;exitX=0;exitY=0.5;exitDx=0;exitDy=0;entryX=0;entryY=0.5;entryDx=0;entryDy=0;" edge="1" parent="1" source="asDQN7h84OJRG8ssvjX6-15" target="asDQN7h84OJRG8ssvjX6-17">
          <mxGeometry relative="1" as="geometry" />
        </mxCell>
        <mxCell id="asDQN7h84OJRG8ssvjX6-15" value="&lt;b&gt;&lt;font style=&quot;font-size: 14px;&quot;&gt;نعم&lt;/font&gt;&lt;/b&gt;" style="ellipse;whiteSpace=wrap;html=1;aspect=fixed;" vertex="1" parent="1">
          <mxGeometry x="172.5" y="830" width="50" height="50" as="geometry" />
        </mxCell>
        <mxCell id="asDQN7h84OJRG8ssvjX6-16" value="&lt;b&gt;&lt;font style=&quot;font-size: 14px;&quot;&gt;نعم&lt;/font&gt;&lt;/b&gt;" style="ellipse;whiteSpace=wrap;html=1;aspect=fixed;" vertex="1" parent="1">
          <mxGeometry x="297.5" y="820" width="50" height="50" as="geometry" />
        </mxCell>
        <mxCell id="asDQN7h84OJRG8ssvjX6-17" value="&lt;font style=&quot;font-size: 14px;&quot;&gt;&lt;b&gt;انتهت اللعبة&lt;/b&gt;&lt;/font&gt;" style="rounded=1;whiteSpace=wrap;html=1;" vertex="1" parent="1">
          <mxGeometry x="210" y="920" width="100" height="50" as="geometry" />
        </mxCell>
        <mxCell id="asDQN7h84OJRG8ssvjX6-18" value="" style="endArrow=classic;html=1;rounded=0;exitX=1;exitY=0.5;exitDx=0;exitDy=0;entryX=1;entryY=0.5;entryDx=0;entryDy=0;edgeStyle=elbowEdgeStyle;" edge="1" parent="1" source="asDQN7h84OJRG8ssvjX6-16" target="asDQN7h84OJRG8ssvjX6-17">
          <mxGeometry width="50" height="50" relative="1" as="geometry">
            <mxPoint x="250" y="770" as="sourcePoint" />
            <mxPoint x="300" y="720" as="targetPoint" />
            <Array as="points">
              <mxPoint x="360" y="910" />
            </Array>
          </mxGeometry>
        </mxCell>
      </root>
    </mxGraphModel>
  </diagram>
</mxfile>
